<svg xmlns="http://www.w3.org/2000/svg" width="494" height="470" viewBox="0 0 494 470">
  <path id="Polygon_21" data-name="Polygon 21" d="M237.043,21.2a11,11,0,0,1,19.913,0l61.569,131.1a11,11,0,0,0,8.584,6.238L470.777,176.6a11,11,0,0,1,6.154,18.936l-105.619,99.1a11,11,0,0,0-3.277,10.089L395.254,447a11,11,0,0,1-16.111,11.7L252.307,388.847a11,11,0,0,0-10.613,0L114.857,458.7A11,11,0,0,1,98.746,447l27.22-142.274a11,11,0,0,0-3.277-10.089l-105.619-99.1A11,11,0,0,1,23.223,176.6l143.667-18.067a11,11,0,0,0,8.584-6.238Z" fill="#18c8ca"/>
</svg>
